<svg width="64" height="18" viewBox="0 0 64 18" fill="none" xmlns="http://www.w3.org/2000/svg">
<path d="M53.6678 10.2318C53.6678 10.6006 53.6678 11.095 53.6678 11.7151C53.6839 12.3184 53.6999 12.9804 53.716 13.7011C53.732 14.4218 53.7481 15.1592 53.7641 15.9134C53.7963 16.6508 53.8284 17.3464 53.8605 18C53.4591 17.933 52.9854 17.8827 52.4395 17.8492C51.9097 17.7989 51.444 17.7737 51.0426 17.7737C50.5609 17.7737 50.0712 17.7989 49.5735 17.8492C49.0918 17.8994 48.6101 17.9497 48.1284 18C48.2248 17.0112 48.289 15.9134 48.3211 14.7067C48.3693 13.5 48.3933 12.2849 48.3933 11.0615V8.62291C48.3933 7.19832 48.3853 5.78212 48.3693 4.3743C48.3532 2.96648 48.2809 1.50838 48.1525 0C48.6663 0.0670392 49.1721 0.125698 49.6698 0.175977C50.1676 0.209497 50.6733 0.226257 51.1871 0.226257C52.1023 0.226257 53.0175 0.150838 53.9327 0C53.8846 0.653631 53.8444 1.3324 53.8123 2.03631C53.7802 2.72346 53.7481 3.41061 53.716 4.09776C53.6999 4.76816 53.6839 5.42179 53.6678 6.05866C53.6678 6.67877 53.6678 7.24022 53.6678 7.74302L54.4385 6.83799C55.0647 6.11732 55.5945 5.49721 56.0281 4.97765C56.4776 4.44134 56.8951 3.92179 57.2804 3.41899C57.6658 2.9162 58.0511 2.40503 58.4365 1.88547C58.8218 1.34916 59.2714 0.72067 59.7852 0C60.4435 0.150838 61.1098 0.226257 61.7842 0.226257C62.0732 0.226257 62.3462 0.209497 62.6031 0.175977C62.876 0.142458 63.157 0.0837988 63.446 0V0.351955C63.1731 0.636871 62.8841 0.921787 62.579 1.2067C62.29 1.47486 62.009 1.75978 61.736 2.06145C60.3713 3.50279 59.0065 5.02793 57.6417 6.63687C57.9468 7.24022 58.3 7.91062 58.7014 8.64805C59.1028 9.36872 59.5203 10.1061 59.9538 10.8603C60.3873 11.6145 60.8128 12.352 61.2303 13.0726C61.6477 13.7933 62.025 14.4469 62.3622 15.0335C62.7155 15.6034 63.0045 16.0894 63.2293 16.4916C63.4701 16.8771 63.6226 17.1117 63.6869 17.1955C63.7511 17.2793 63.8153 17.3715 63.8795 17.4721C63.9598 17.5559 64 17.6229 64 17.6732V18C63.8554 17.9832 63.6628 17.9665 63.4219 17.9497C63.1971 17.9162 62.9483 17.8911 62.6753 17.8743C62.4184 17.8408 62.1455 17.8156 61.8565 17.7989C61.5835 17.7821 61.3186 17.7737 61.0617 17.7737C60.5639 17.7737 59.9939 17.7905 59.3517 17.824C58.7255 17.8575 58.1716 17.9162 57.6899 18C57.5935 17.7989 57.4731 17.5642 57.3286 17.2961C57.2002 17.0112 57.0637 16.7179 56.9192 16.4162C56.7747 16.1145 56.6221 15.8128 56.4616 15.5112C56.301 15.1927 56.1485 14.8994 56.004 14.6313L53.6678 10.2318Z" fill="black" style="fill:black;fill-opacity:1;"/>
<path d="M40.0791 15.4609C40.2397 15.4609 40.5608 15.4609 41.0425 15.4609C41.5242 15.4441 42.0541 15.4274 42.6321 15.4106C43.2262 15.3771 43.8202 15.3436 44.4143 15.3101C45.0084 15.2765 45.4981 15.2263 45.8835 15.1592C45.8513 15.3436 45.8192 15.5615 45.7871 15.8128C45.7711 16.0475 45.763 16.3156 45.763 16.6173C45.763 16.852 45.7711 17.0866 45.7871 17.3212C45.8192 17.5391 45.8513 17.7654 45.8835 18C44.8719 17.9162 43.9647 17.8575 43.1619 17.824C42.3752 17.7905 41.5884 17.7737 40.8017 17.7737C39.9346 17.7737 38.9392 17.7905 37.8152 17.824C36.6913 17.8575 35.5272 17.9162 34.323 18C34.4675 17.2626 34.5638 16.4832 34.612 15.662C34.6602 14.8408 34.6843 14.0698 34.6843 13.3492V12.0419C34.6843 11.2374 34.6762 10.5084 34.6602 9.85475C34.6602 9.18436 34.6522 8.55587 34.6361 7.96927C34.6361 7.38268 34.6281 6.82123 34.612 6.28492C34.596 5.73184 34.5799 5.16201 34.5638 4.57542C34.5317 3.80447 34.5076 3.01676 34.4916 2.21229C34.4755 1.39106 34.4274 0.653631 34.3471 0C35.3586 0.150838 36.3862 0.226257 37.4299 0.226257C37.9276 0.226257 38.4013 0.209497 38.8508 0.175977C39.3165 0.142458 39.7901 0.0837988 40.2718 0C40.2236 0.435754 40.1835 1.02235 40.1514 1.75978C40.1353 2.48045 40.1113 3.2514 40.0791 4.07263C40.0631 4.89386 40.047 5.7067 40.031 6.51117C40.031 7.31564 40.031 8.01117 40.031 8.59777V9.75419C40.031 9.98883 40.031 10.3827 40.031 10.9358C40.047 11.4721 40.0551 12.0419 40.0551 12.6453C40.0551 13.2486 40.0551 13.8184 40.0551 14.3547C40.0711 14.8911 40.0791 15.2598 40.0791 15.4609Z" fill="black" style="fill:black;fill-opacity:1;"/>
<path d="M30.6699 9.65363C30.6699 11.0782 30.6779 12.5279 30.694 14.0028C30.7261 15.4609 30.7983 16.7933 30.9107 18C30.4612 17.9162 29.9715 17.8575 29.4416 17.824C28.9278 17.7905 28.414 17.7737 27.9002 17.7737C27.3864 17.7737 26.8806 17.7989 26.3829 17.8492C25.8852 17.8994 25.4356 17.9497 25.0342 18C25.1145 16.5922 25.1707 15.2095 25.2028 13.852C25.2509 12.4944 25.275 11.1117 25.275 9.70391C25.275 9.36872 25.267 8.9581 25.2509 8.47207C25.2509 7.96927 25.2509 7.4581 25.2509 6.93855C25.2509 6.40224 25.2429 5.89106 25.2269 5.40503C25.2269 4.90223 25.2269 4.48324 25.2269 4.14805C25.2269 3.56145 25.2108 2.89944 25.1787 2.16201C25.1466 1.42458 25.0984 0.703911 25.0342 0C25.4516 0.0502787 25.9333 0.100558 26.4792 0.150838C27.0251 0.201117 27.5229 0.226257 27.9725 0.226257C28.4702 0.226257 28.984 0.209497 29.5139 0.175977C30.0437 0.125698 30.5174 0.0670392 30.9348 0C30.8545 1.2067 30.7903 2.39665 30.7422 3.56983C30.694 4.74302 30.6699 5.93296 30.6699 7.13967V9.65363Z" fill="black" style="fill:black;fill-opacity:1;"/>
<path d="M15.0045 8.17039C14.282 9.79609 13.5835 11.4553 12.9092 13.148C12.2348 14.8408 11.6407 16.433 11.1269 17.9246C10.9343 17.8911 10.7416 17.8659 10.5489 17.8492C10.3723 17.8156 10.1716 17.7989 9.94681 17.7989C9.77019 17.7989 9.57751 17.8156 9.36878 17.8492C9.17611 17.8659 8.96738 17.8911 8.74259 17.9246C8.34119 16.7682 7.89964 15.6369 7.41796 14.5307C6.95233 13.4246 6.50275 12.2933 6.06924 11.1369C5.79628 10.433 5.50727 9.75419 5.2022 9.10056C4.89714 8.43017 4.60813 7.74302 4.33517 7.03911C4.15855 7.96089 4.01405 8.88268 3.90165 9.80447C3.78926 10.7095 3.67687 11.6397 3.56447 12.595C3.43602 13.7011 3.33166 14.6983 3.25138 15.5866C3.1711 16.4749 3.1149 17.2793 3.08279 18C2.6011 17.8492 2.10336 17.7737 1.58956 17.7737C1.31661 17.7737 1.05168 17.7989 0.794781 17.8492C0.537882 17.8827 0.272955 17.933 0 18C0.321124 16.7263 0.602107 15.4609 0.84295 14.2039C1.08379 12.9302 1.31661 11.6397 1.54139 10.3324C1.81435 8.85754 2.05519 7.31564 2.26392 5.7067C2.47265 4.09777 2.63321 2.53073 2.74561 1.00559L2.81786 0C3.18715 0.0837988 3.55645 0.142458 3.92574 0.175977C4.29503 0.209497 4.66432 0.226257 5.03361 0.226257C5.43502 0.226257 5.81234 0.209497 6.16558 0.175977C6.51881 0.142458 6.8881 0.0837988 7.27345 0C7.41796 0.435754 7.59458 0.946927 7.80331 1.53352C8.01204 2.10335 8.23682 2.71508 8.47767 3.36872C8.73456 4.00559 8.99949 4.6676 9.27245 5.35475C9.56146 6.02514 9.84244 6.68715 10.1154 7.34078C10.3884 7.97765 10.6533 8.58939 10.9102 9.17598C11.1831 9.76257 11.424 10.2821 11.6327 10.7346C12.3552 8.97486 13.0858 7.18994 13.8244 5.37989C14.579 3.55307 15.2534 1.75978 15.8475 0C16.2007 0.0837988 16.5539 0.142458 16.9072 0.175977C17.2604 0.209497 17.6217 0.226257 17.991 0.226257C18.3602 0.226257 18.7376 0.217877 19.1229 0.201118C19.5083 0.167598 19.8856 0.100558 20.2549 0L20.5439 3.24302C20.6081 3.89665 20.6884 4.65922 20.7847 5.53073C20.8811 6.38548 20.9774 7.28212 21.0737 8.22067C21.1861 9.15922 21.3066 10.1145 21.435 11.0866C21.5635 12.0587 21.6839 12.9804 21.7963 13.852C21.9247 14.7235 22.0532 15.5196 22.1816 16.2402C22.3101 16.9609 22.4305 17.5475 22.5429 18C22.0291 17.933 21.5313 17.8827 21.0497 17.8492C20.584 17.7989 20.1023 17.7737 19.6046 17.7737C19.1229 17.7737 18.6412 17.7989 18.1595 17.8492C17.6779 17.8827 17.2042 17.933 16.7386 18C16.6583 16.8939 16.57 15.8128 16.4736 14.757C16.3934 13.7011 16.297 12.6201 16.1846 11.514C16.1044 10.6927 16.008 9.86313 15.8956 9.02514C15.7832 8.17039 15.6789 7.44134 15.5825 6.83799L15.0045 8.17039Z" fill="black" style="fill:black;fill-opacity:1;"/>
</svg>
